<svg width="1608" height="1189" viewBox="0 0 1608 1189" fill="none" xmlns="http://www.w3.org/2000/svg">
<path d="M674.637 1504.78H554.15V1146.67L554.445 1146.24L674.637 1014.25V1504.78Z" stroke="url(#paint0_linear_1385_1935)" stroke-opacity="0.2"/>
<path d="M119.181 1082.49L0.5 952.015V404.473L0.771261 404.174L120.987 272.01V1084.48L119.181 1082.49Z" stroke="url(#paint1_linear_1385_1935)" stroke-opacity="0.2"/>
<path d="M476.285 517.059L476.285 517.059L355.961 384.922H720.836L718.921 387.027L718.921 387.027L600.259 517.337H476.537L476.285 517.059Z" stroke="url(#paint2_linear_1385_1935)" stroke-opacity="0.2"/>
<path d="M741.465 1010.81H866.1V1504.78H741.465V1010.81Z" stroke="url(#paint3_linear_1385_1935)" stroke-opacity="0.2"/>
<path d="M0.794677 82.1577L111.54 -39.4478H281.983L280.068 -37.3423L0.5 270.013V82.5896L0.794677 82.1577Z" stroke="url(#paint4_linear_1385_1935)" stroke-opacity="0.2"/>
<path d="M1053.28 1146.71V1504.78H932.928V1014.3L934.592 1016.23L934.591 1016.23L934.6 1016.24L1053.28 1146.71Z" stroke="url(#paint5_linear_1385_1935)" stroke-opacity="0.2"/>
<path d="M1486.44 1084.48V272.01L1488.25 273.995L1488.25 273.995L1606.93 404.472V952.054L1606.64 952.486L1486.44 1084.48Z" stroke="url(#paint6_linear_1385_1935)" stroke-opacity="0.2"/>
<path d="M1006.92 517.059L1006.92 517.059L886.597 384.922H1251.47L1249.56 387.027L1249.56 387.027L1130.9 517.337H1007.17L1006.92 517.059Z" stroke="url(#paint7_linear_1385_1935)" stroke-opacity="0.2"/>
<path d="M741.465 384.922H866.1V710.325H741.465V384.922Z" stroke="url(#paint8_linear_1385_1935)" stroke-opacity="0.2"/>
<path d="M308.433 235.664L308.303 235.807V236.001V724.828L306.497 722.843L187.815 592.366V180.847L188.11 180.415L362.275 -10.9131H1245.2L1245.57 -10.6087L1419.62 180.886V592.405L1419.32 592.836L1299.13 724.829V236.001V235.807L1299 235.664L1195.44 121.813L1195.29 121.649H1195.07H412.361H412.14L411.991 121.813L308.433 235.664Z" stroke="url(#paint9_linear_1385_1935)" stroke-opacity="0.2"/>
<path d="M306.497 1288.42L187.815 1157.95V868.851L188.087 868.553L188.087 868.553L308.303 736.534V1290.41L306.497 1288.42Z" stroke="url(#paint10_linear_1385_1935)" stroke-opacity="0.2"/>
<path d="M1299.13 1290.41V736.488L1300.94 738.378L1300.94 738.383L1419.62 868.851V1157.99L1419.32 1158.42L1299.13 1290.41Z" stroke="url(#paint11_linear_1385_1935)" stroke-opacity="0.2"/>
<path d="M491.6 1104.41L491.47 1104.55V1104.75V1491.78L489.664 1489.8L370.982 1359.32V1049.63L371.254 1049.33L619.431 776.488H988.042L988.411 776.792L1236.45 1049.63V1359.36L1236.15 1359.79L1115.96 1491.78V1104.75V1104.55L1115.83 1104.41L938.284 909.214L938.135 909.05H937.914H669.518H669.297L669.148 909.214L491.6 1104.41Z" stroke="url(#paint12_linear_1385_1935)" stroke-opacity="0.2"/>
<path d="M1325.45 -39.4478H1495.93L1496.3 -39.1436L1606.93 82.6285V270.013L1605.13 268.027L1325.45 -39.4478Z" stroke="url(#paint13_linear_1385_1935)" stroke-opacity="0.2"/>
<defs>
<linearGradient id="paint0_linear_1385_1935" x1="614.394" y1="1012.96" x2="614.394" y2="1505.28" gradientUnits="userSpaceOnUse">
<stop stop-color="#F8FAF8"/>
<stop offset="1" stop-color="#F8FAF8" stop-opacity="0"/>
</linearGradient>
<linearGradient id="paint1_linear_1385_1935" x1="60.7436" y1="270.717" x2="60.7436" y2="1085.77" gradientUnits="userSpaceOnUse">
<stop stop-color="#F8FAF8"/>
<stop offset="1" stop-color="#F8FAF8" stop-opacity="0"/>
</linearGradient>
<linearGradient id="paint2_linear_1385_1935" x1="538.398" y1="384.422" x2="538.398" y2="517.837" gradientUnits="userSpaceOnUse">
<stop stop-color="#F8FAF8"/>
<stop offset="1" stop-color="#F8FAF8" stop-opacity="0"/>
</linearGradient>
<linearGradient id="paint3_linear_1385_1935" x1="803.782" y1="1010.31" x2="803.782" y2="1505.28" gradientUnits="userSpaceOnUse">
<stop stop-color="#F8FAF8"/>
<stop offset="1" stop-color="#F8FAF8" stop-opacity="0"/>
</linearGradient>
<linearGradient id="paint4_linear_1385_1935" x1="141.557" y1="-39.9478" x2="141.557" y2="271.305" gradientUnits="userSpaceOnUse">
<stop stop-color="#F8FAF8"/>
<stop offset="1" stop-color="#F8FAF8" stop-opacity="0"/>
</linearGradient>
<linearGradient id="paint5_linear_1385_1935" x1="993.104" y1="1012.96" x2="993.104" y2="1505.28" gradientUnits="userSpaceOnUse">
<stop stop-color="#F8FAF8"/>
<stop offset="1" stop-color="#F8FAF8" stop-opacity="0"/>
</linearGradient>
<linearGradient id="paint6_linear_1385_1935" x1="1546.69" y1="270.717" x2="1546.69" y2="1085.77" gradientUnits="userSpaceOnUse">
<stop stop-color="#F8FAF8"/>
<stop offset="1" stop-color="#F8FAF8" stop-opacity="0"/>
</linearGradient>
<linearGradient id="paint7_linear_1385_1935" x1="1069.03" y1="384.422" x2="1069.03" y2="517.837" gradientUnits="userSpaceOnUse">
<stop stop-color="#F8FAF8"/>
<stop offset="1" stop-color="#F8FAF8" stop-opacity="0"/>
</linearGradient>
<linearGradient id="paint8_linear_1385_1935" x1="803.782" y1="384.422" x2="803.782" y2="710.825" gradientUnits="userSpaceOnUse">
<stop stop-color="#F8FAF8"/>
<stop offset="1" stop-color="#F8FAF8" stop-opacity="0"/>
</linearGradient>
<linearGradient id="paint9_linear_1385_1935" x1="803.716" y1="-11.4131" x2="803.716" y2="726.121" gradientUnits="userSpaceOnUse">
<stop stop-color="#F8FAF8"/>
<stop offset="1" stop-color="#F8FAF8" stop-opacity="0"/>
</linearGradient>
<linearGradient id="paint10_linear_1385_1935" x1="248.059" y1="735.242" x2="248.059" y2="1291.7" gradientUnits="userSpaceOnUse">
<stop stop-color="#F8FAF8"/>
<stop offset="1" stop-color="#F8FAF8" stop-opacity="0"/>
</linearGradient>
<linearGradient id="paint11_linear_1385_1935" x1="1359.37" y1="735.242" x2="1359.37" y2="1291.7" gradientUnits="userSpaceOnUse">
<stop stop-color="#F8FAF8"/>
<stop offset="1" stop-color="#F8FAF8" stop-opacity="0"/>
</linearGradient>
<linearGradient id="paint12_linear_1385_1935" x1="803.716" y1="775.988" x2="803.716" y2="1493.08" gradientUnits="userSpaceOnUse">
<stop stop-color="#F8FAF8"/>
<stop offset="1" stop-color="#F8FAF8" stop-opacity="0"/>
</linearGradient>
<linearGradient id="paint13_linear_1385_1935" x1="1465.88" y1="-39.9478" x2="1465.88" y2="271.305" gradientUnits="userSpaceOnUse">
<stop stop-color="#F8FAF8"/>
<stop offset="1" stop-color="#F8FAF8" stop-opacity="0"/>
</linearGradient>
</defs>
</svg>