<svg width="24" height="24" viewBox="0 0 24 24" fill="none" xmlns="http://www.w3.org/2000/svg">
<g clip-path="url(#clip0_2004_659)">
<rect width="24" height="24" rx="12" fill="#040404"/>
<path d="M14.0921 7.08675C14.1563 6.96527 14.2588 6.86792 14.3842 6.8095C14.5566 6.73007 14.731 6.72204 14.8914 6.83544C14.9456 6.87434 14.9889 6.92633 15.017 6.98642C15.1616 7.29934 15.3055 7.61282 15.4376 7.9321C15.6497 8.44789 15.9373 8.92727 16.1721 9.43259C16.5058 10.1513 16.8421 10.8684 17.1813 11.5839C17.3756 11.9935 17.5597 12.4124 17.8037 12.7983C17.8705 12.9 17.9436 12.9975 18.0226 13.0903C18.0559 13.1282 18.0973 13.1584 18.1439 13.1787C18.5 13.3414 18.8835 13.3725 19.2658 13.3964C19.4609 13.4087 19.6523 13.3825 19.8461 13.3824C20.2172 13.383 20.5884 13.3837 20.9576 13.3964C21.2021 13.4052 21.4465 13.4333 21.6899 13.4587C21.7839 13.4718 21.8769 13.4913 21.9683 13.5171C22.0064 13.5278 22.0432 13.5427 22.078 13.5616C22.2765 13.6629 22.3162 13.8329 22.1795 14.0056C22.0655 14.1514 21.9182 14.2683 21.7495 14.3467C21.39 14.508 21.015 14.6338 20.6303 14.7221C20.2509 14.815 19.8743 14.9186 19.5004 15.0328C18.9285 15.213 18.3423 15.3458 17.7477 15.4299C17.352 15.4808 16.9532 15.5058 16.5539 15.5046C16.195 15.5059 15.8366 15.4788 15.4766 15.4658C14.9276 15.4457 14.3802 15.405 13.8318 15.3603C13.029 15.3011 12.2227 15.3913 11.4545 15.626C10.9358 15.7774 10.4151 15.9234 9.89829 16.088C9.6548 16.1654 9.41934 16.2774 9.18708 16.3781C8.88005 16.51 8.57641 16.6527 8.26651 16.7804C7.51212 17.0949 6.72636 17.294 5.89787 17.2969C5.46293 17.3071 5.02779 17.2799 4.59738 17.2155C4.34035 17.1711 4.08067 17.151 3.82839 17.0631C3.0203 16.777 2.48171 16.2409 2.29034 15.4025C2.2385 15.1844 2.23659 14.9577 2.2848 14.739C2.33301 14.5204 2.4301 14.3153 2.56896 14.1389C2.70504 13.9597 2.83627 13.7709 2.98287 13.5974C3.27559 13.2435 3.63983 12.954 4.05239 12.7473C4.43626 12.5523 4.85592 12.4351 5.28674 12.4027C5.56222 12.3767 5.83974 12.3781 6.11511 12.407C6.20891 12.4173 6.30119 12.4417 6.39443 12.4571C6.43778 12.4619 6.47982 12.4665 6.53416 12.4724C6.54578 12.4388 6.55459 12.4042 6.56049 12.3692C6.58165 12.0732 6.60022 11.7769 6.62009 11.4808C6.6286 11.4027 6.63251 11.3248 6.63578 11.2469C6.64238 11.0904 6.64374 10.9339 6.6535 10.7784C6.67558 10.4321 6.67178 10.0828 6.74834 9.74113C6.75911 9.6874 6.76506 9.63282 6.76613 9.57807C6.77746 9.30619 6.87443 9.05932 6.99042 8.81836C7.00182 8.79353 7.01543 8.76962 7.03089 8.74706C7.25292 8.44806 7.52311 8.18716 7.83073 7.97485C8.4267 7.56145 9.08967 7.25127 9.79142 7.05772C10.2821 6.92102 10.7841 6.82717 11.2917 6.77727C11.7606 6.73611 12.2328 6.75191 12.6981 6.82429C12.8585 6.84901 13.0203 6.87133 13.1795 6.88234C13.4562 6.90046 13.7287 6.9594 13.988 7.0572C14.0202 7.0685 14.0508 7.0751 14.0921 7.08675ZM6.90064 12.5638C6.95147 12.5843 7.00115 12.6085 7.05378 12.624C7.44208 12.7417 7.83081 12.8588 8.22013 12.9754L8.27724 12.9855C8.23635 12.954 8.18937 12.931 8.13927 12.9179C7.84838 12.8297 7.55893 12.7409 7.26703 12.6559C7.14646 12.6206 7.02295 12.5948 6.90122 12.5645C6.87743 12.4105 6.89093 12.3829 7.03198 12.32C7.09332 12.2918 7.15542 12.2689 7.21617 12.24C8.15625 11.8296 9.14222 11.5297 10.1537 11.3466C10.9224 11.2025 11.6996 11.1054 12.4807 11.056C13.151 11.0085 13.824 11.0042 14.4952 11.043C15.0131 11.0667 15.5279 11.1378 16.0329 11.2552C16.2643 11.3074 16.4904 11.381 16.7081 11.475C16.7855 11.5078 16.8487 11.5668 16.8863 11.6414C16.99 11.8437 17.0998 12.0434 17.2075 12.2442L17.6916 13.1471C17.7091 13.1794 17.7422 13.2115 17.7026 13.2686C17.6178 13.2425 17.5274 13.2184 17.4398 13.1874C16.9874 13.0314 16.5196 12.9236 16.0444 12.8659C15.5747 12.8027 15.1005 12.7622 14.6273 12.7316C14.2533 12.708 13.877 12.7139 13.5015 12.7109C13.2763 12.7035 13.051 12.708 12.8264 12.7241C12.4095 12.765 11.9948 12.8269 11.5795 12.877L9.5464 13.1384C9.52385 13.1411 9.50171 13.1459 9.47974 13.1493L9.47704 13.1736C9.7806 13.2114 10.0803 13.2751 10.3729 13.3639C10.1888 13.3527 10.006 13.3301 9.82259 13.3132C9.63917 13.2962 9.45288 13.2874 9.26701 13.269C9.08113 13.2505 8.91343 13.1912 8.72882 13.215C8.76667 13.2429 8.80833 13.2653 8.85251 13.2816C9.20508 13.4214 9.56533 13.5411 9.93158 13.6403C10.4338 13.7659 10.9322 13.908 11.4313 14.0437C11.6107 14.092 11.7882 14.1509 11.9708 14.1819C12.2664 14.2325 12.5649 14.2692 12.8631 14.3019C13.0753 14.3252 13.2886 14.3383 13.5016 14.3546C13.6755 14.3679 13.8481 14.3771 14.0215 14.3897C14.448 14.4223 14.8747 14.4187 15.3015 14.4125C15.9698 14.4043 16.6362 14.3449 17.2948 14.2347C17.5198 14.1947 17.7411 14.1342 17.9624 14.0744C18.1647 14.0202 18.3609 13.9493 18.5627 13.8944C18.9079 13.8029 19.2611 13.8417 19.6135 13.8649C19.7039 13.8703 19.7936 13.8878 19.8838 13.901C20.0011 13.9184 20.117 13.9415 20.2349 13.9531C20.4782 13.9798 20.7226 14.0016 20.9673 14.0155C21.1956 14.0283 21.4235 14.0339 21.6542 14.0314C21.7527 14.025 21.85 14.0078 21.9446 13.9804C21.9864 13.9689 22.025 13.9483 22.0578 13.9204C22.1541 13.8423 22.1483 13.7511 22.037 13.6981C21.9481 13.6553 21.8533 13.6262 21.7557 13.6116C21.4076 13.5591 21.0561 13.5334 20.7041 13.5349C20.5461 13.537 20.3879 13.5409 20.2301 13.5411C20.1274 13.5408 20.0245 13.5353 19.9214 13.5324C20.122 13.5842 20.3242 13.6213 20.5255 13.6602C20.7114 13.6961 20.8972 13.7341 21.0828 13.7725C21.1213 13.7834 21.159 13.7968 21.1956 13.8127L21.1891 13.836C21.1629 13.837 21.1363 13.8399 21.1103 13.8383C21.0355 13.8346 20.9599 13.8302 20.8854 13.8234C20.6411 13.8011 20.3967 13.7839 20.1541 13.7521C19.9114 13.7203 19.6548 13.6721 19.4049 13.6336C19.1745 13.5979 18.9423 13.5718 18.713 13.5311C18.4306 13.4777 18.1544 13.3965 17.8884 13.2884C17.8286 13.2672 17.7791 13.2246 17.7495 13.169C17.5156 12.733 17.2747 12.3008 17.045 11.862C16.7864 11.369 16.535 10.8716 16.2835 10.3741C16.0939 9.99932 15.903 9.62505 15.7244 9.24562C15.4704 8.7 15.2227 8.15506 14.977 7.60522C14.896 7.42289 14.7967 7.24761 14.7758 7.04859C14.6165 6.98514 14.3775 7.04497 14.28 7.17081C14.4025 7.24897 14.573 7.22693 14.6992 7.36115C14.6629 7.37947 14.624 7.39222 14.5838 7.39898C14.5168 7.39755 14.4501 7.38868 14.385 7.3726C14.2321 7.33444 14.0834 7.27476 13.9282 7.24541C13.6648 7.19319 13.3988 7.15362 13.1337 7.11027C12.8602 7.06779 12.5832 7.0506 12.3066 7.05891C12.0029 7.06438 11.6973 7.05671 11.3941 7.06937C10.3981 7.11918 9.47146 7.41605 8.58587 7.852C8.29752 7.99867 8.02226 8.16908 7.76305 8.36154C7.60616 8.46876 7.48002 8.61433 7.3968 8.78406C7.16218 9.2844 7.07254 9.8181 7.03934 10.3626C7.02218 10.6513 7.00495 10.9413 6.98484 11.2277C6.96473 11.5141 6.94175 11.797 6.91861 12.0811C6.90591 12.1975 6.89315 12.3145 6.88498 12.4314C6.86731 12.4793 6.85949 12.5269 6.90064 12.5638ZM21.9243 14.0759C21.8128 14.1142 21.7037 14.1598 21.5901 14.1874C21.446 14.2278 21.2984 14.2549 21.1492 14.2685C20.8599 14.2852 20.5743 14.2325 20.2883 14.1959C20.0023 14.1593 19.7322 14.1206 19.4543 14.081C19.3167 14.0645 19.1774 14.0695 19.0416 14.0958C18.7201 14.1498 18.4214 14.2776 18.1105 14.367C17.9252 14.4204 17.7421 14.4851 17.5541 14.5285C17.3008 14.5874 17.0422 14.6237 16.7883 14.6825C16.4705 14.7457 16.1466 14.7752 15.8222 14.7706C15.339 14.7771 14.8591 14.7347 14.3776 14.7077C14.1095 14.6925 13.8411 14.6922 13.5723 14.684C13.2719 14.6717 12.9713 14.6659 12.6729 14.6344C12.4103 14.6056 12.1504 14.5517 11.89 14.5025C11.5947 14.4471 11.3042 14.3692 11.0211 14.2692C10.5364 14.0975 10.0521 13.9272 9.56339 13.7687C8.93953 13.566 8.31332 13.3709 7.68482 13.1832C7.20054 13.0375 6.71426 12.898 6.22401 12.771C6.04022 12.7237 5.85092 12.7009 5.66116 12.7034C5.21262 12.7135 4.77169 12.8177 4.36754 13.0091C4.12803 13.1205 3.89567 13.2462 3.67178 13.3857C3.4973 13.4929 3.33349 13.6162 3.18249 13.7539C2.83803 14.075 2.60034 14.492 2.50076 14.95C2.42039 15.2728 2.46972 15.6143 2.6384 15.9029C2.78048 16.1387 2.9621 16.349 3.17546 16.5248C3.18955 16.5359 3.20443 16.546 3.21997 16.5549C3.18131 16.4821 3.13478 16.4137 3.0812 16.3507C2.91907 16.1573 2.79112 15.9383 2.70278 15.7028C2.5869 15.3607 2.59061 15.0266 2.77488 14.7058C2.90272 14.4942 3.07748 14.3143 3.286 14.1794C3.66297 13.9225 4.08859 13.7777 4.5291 13.6766C5.11764 13.5386 5.71977 13.4639 6.32498 13.4538C6.58127 13.451 6.83789 13.4571 7.09476 13.4608C7.24515 13.463 7.39604 13.4602 7.54491 13.4752C7.8009 13.493 8.05538 13.5272 8.30698 13.5777C8.58266 13.6429 8.84947 13.7479 9.11839 13.8389C9.6728 14.026 10.2275 14.2112 10.7792 14.4051C11.2293 14.5659 11.6926 14.6878 12.164 14.7694C12.7503 14.8589 13.3422 14.908 13.9352 14.9167C14.3104 14.9281 14.6857 14.9448 15.0605 14.9536C15.3288 14.9604 15.5989 14.9752 15.866 14.9566C16.5053 14.9129 17.1399 14.8376 17.7565 14.653C17.9948 14.5814 18.2349 14.5172 18.4725 14.4455C18.593 14.409 18.7094 14.3557 18.8309 14.3231C19.2276 14.2146 19.63 14.2588 20.0312 14.3017C20.1646 14.3163 20.296 14.3469 20.4294 14.3602C20.5628 14.3736 20.6978 14.3722 20.8313 14.3856C20.9926 14.4007 21.155 14.3986 21.3158 14.3793C21.5562 14.3545 21.7443 14.2322 21.9227 14.0849L21.9243 14.0759Z" fill="#F68623"/>
<path d="M14.0921 7.08675C14.1563 6.96527 14.2588 6.86792 14.3842 6.8095C14.5566 6.73007 14.731 6.72204 14.8914 6.83544C14.9456 6.87434 14.9889 6.92633 15.017 6.98642C15.1616 7.29934 15.3055 7.61282 15.4376 7.9321C15.6497 8.44789 15.9373 8.92727 16.1721 9.43259C16.5058 10.1513 16.8421 10.8684 17.1813 11.5839C17.3756 11.9935 17.5597 12.4124 17.8037 12.7983C17.8705 12.9 17.9436 12.9975 18.0226 13.0903C18.0559 13.1282 18.0973 13.1584 18.1439 13.1787C18.5 13.3414 18.8835 13.3725 19.2658 13.3964C19.4609 13.4087 19.6523 13.3825 19.8461 13.3824C20.2172 13.383 20.5884 13.3837 20.9576 13.3964C21.2021 13.4052 21.4465 13.4333 21.6899 13.4587C21.7839 13.4718 21.8769 13.4913 21.9683 13.5171C22.0064 13.5278 22.0432 13.5427 22.078 13.5616C22.2765 13.6629 22.3162 13.8329 22.1795 14.0056C22.0655 14.1514 21.9182 14.2683 21.7495 14.3467C21.39 14.508 21.015 14.6338 20.6303 14.7221C20.2509 14.815 19.8743 14.9186 19.5004 15.0328C18.9285 15.213 18.3423 15.3458 17.7477 15.4299C17.352 15.4808 16.9532 15.5058 16.5539 15.5046C16.195 15.5059 15.8366 15.4788 15.4766 15.4658C14.9276 15.4457 14.3802 15.405 13.8318 15.3603C13.029 15.3011 12.2227 15.3913 11.4545 15.626C10.9358 15.7774 10.4151 15.9234 9.89829 16.088C9.6548 16.1654 9.41934 16.2774 9.18708 16.3781C8.88005 16.51 8.57641 16.6527 8.26651 16.7804C7.51212 17.0949 6.72636 17.294 5.89787 17.2969C5.46293 17.3071 5.02779 17.2799 4.59738 17.2155C4.34035 17.1711 4.08067 17.151 3.82839 17.0631C3.0203 16.777 2.48171 16.2409 2.29034 15.4025C2.2385 15.1844 2.23659 14.9577 2.2848 14.739C2.33301 14.5204 2.4301 14.3153 2.56896 14.1389C2.70504 13.9597 2.83627 13.7709 2.98287 13.5974C3.27559 13.2435 3.63983 12.954 4.05239 12.7473C4.43626 12.5523 4.85592 12.4351 5.28674 12.4027C5.56222 12.3767 5.83974 12.3781 6.11511 12.407C6.20891 12.4173 6.30119 12.4417 6.39443 12.4571C6.43778 12.4619 6.47982 12.4665 6.53416 12.4724C6.54578 12.4388 6.55459 12.4042 6.56049 12.3692C6.58165 12.0732 6.60022 11.7769 6.62009 11.4808C6.6286 11.4027 6.63251 11.3248 6.63578 11.2469C6.64238 11.0904 6.64374 10.9339 6.6535 10.7784C6.67558 10.4321 6.67178 10.0828 6.74834 9.74113C6.75911 9.6874 6.76506 9.63282 6.76613 9.57807C6.77746 9.30619 6.87443 9.05932 6.99042 8.81836C7.00182 8.79353 7.01543 8.76962 7.03089 8.74706C7.25292 8.44806 7.52311 8.18716 7.83073 7.97485C8.4267 7.56145 9.08967 7.25127 9.79142 7.05772C10.2821 6.92102 10.7841 6.82717 11.2917 6.77727C11.7606 6.73611 12.2328 6.75191 12.6981 6.82429C12.8585 6.84901 13.0203 6.87133 13.1795 6.88234C13.4562 6.90046 13.7287 6.9594 13.988 7.0572C14.0202 7.0685 14.0508 7.0751 14.0921 7.08675ZM6.90064 12.5638C6.95147 12.5843 7.00115 12.6085 7.05378 12.624C7.44208 12.7417 7.83081 12.8588 8.22013 12.9754L8.27724 12.9855C8.23635 12.954 8.18937 12.931 8.13927 12.9179C7.84838 12.8297 7.55893 12.7409 7.26703 12.6559C7.14646 12.6206 7.02295 12.5948 6.90122 12.5645C6.87743 12.4105 6.89093 12.3829 7.03198 12.32C7.09332 12.2918 7.15542 12.2689 7.21617 12.24C8.15625 11.8296 9.14222 11.5297 10.1537 11.3466C10.9224 11.2025 11.6996 11.1054 12.4807 11.056C13.151 11.0085 13.824 11.0042 14.4952 11.043C15.0131 11.0667 15.5279 11.1378 16.0329 11.2552C16.2643 11.3074 16.4904 11.381 16.7081 11.475C16.7855 11.5078 16.8487 11.5668 16.8863 11.6414C16.99 11.8437 17.0998 12.0434 17.2075 12.2442L17.6916 13.1471C17.7091 13.1794 17.7422 13.2115 17.7026 13.2686C17.6178 13.2425 17.5274 13.2184 17.4398 13.1874C16.9874 13.0314 16.5196 12.9236 16.0444 12.8659C15.5747 12.8027 15.1005 12.7622 14.6273 12.7316C14.2533 12.708 13.877 12.7139 13.5015 12.7109C13.2763 12.7035 13.051 12.708 12.8264 12.7241C12.4095 12.765 11.9948 12.8269 11.5795 12.877L9.5464 13.1384C9.52385 13.1411 9.50171 13.1459 9.47974 13.1493L9.47704 13.1736C9.7806 13.2114 10.0803 13.2751 10.3729 13.3639C10.1888 13.3527 10.006 13.3301 9.82259 13.3132C9.63917 13.2962 9.45288 13.2874 9.26701 13.269C9.08113 13.2505 8.91343 13.1912 8.72882 13.215C8.76667 13.2429 8.80833 13.2653 8.85251 13.2816C9.20508 13.4214 9.56533 13.5411 9.93158 13.6403C10.4338 13.7659 10.9322 13.908 11.4313 14.0437C11.6107 14.092 11.7882 14.1509 11.9708 14.1819C12.2664 14.2325 12.5649 14.2692 12.8631 14.3019C13.0753 14.3252 13.2886 14.3383 13.5016 14.3546C13.6755 14.3679 13.8481 14.3771 14.0215 14.3897C14.448 14.4223 14.8747 14.4187 15.3015 14.4125C15.9698 14.4043 16.6362 14.3449 17.2948 14.2347C17.5198 14.1947 17.7411 14.1342 17.9624 14.0744C18.1647 14.0202 18.3609 13.9493 18.5627 13.8944C18.9079 13.8029 19.2611 13.8417 19.6135 13.8649C19.7039 13.8703 19.7936 13.8878 19.8838 13.901C20.0011 13.9184 20.117 13.9415 20.2349 13.9531C20.4782 13.9798 20.7226 14.0016 20.9673 14.0155C21.1956 14.0283 21.4235 14.0339 21.6542 14.0314C21.7527 14.025 21.85 14.0078 21.9446 13.9804C21.9864 13.9689 22.025 13.9483 22.0578 13.9204C22.1541 13.8423 22.1483 13.7511 22.037 13.6981C21.9481 13.6553 21.8533 13.6262 21.7557 13.6116C21.4076 13.5591 21.0561 13.5334 20.7041 13.5349C20.5461 13.537 20.3879 13.5409 20.2301 13.5411C20.1274 13.5408 20.0245 13.5353 19.9214 13.5324C20.122 13.5842 20.3242 13.6213 20.5255 13.6602C20.7114 13.6961 20.8972 13.7341 21.0828 13.7725C21.1213 13.7834 21.159 13.7968 21.1956 13.8127L21.1891 13.836C21.1629 13.837 21.1363 13.8399 21.1103 13.8383C21.0355 13.8346 20.9599 13.8302 20.8854 13.8234C20.6411 13.8011 20.3967 13.7839 20.1541 13.7521C19.9114 13.7203 19.6548 13.6721 19.4049 13.6336C19.1745 13.5979 18.9423 13.5718 18.713 13.5311C18.4306 13.4777 18.1544 13.3965 17.8884 13.2884C17.8286 13.2672 17.7791 13.2246 17.7495 13.169C17.5156 12.733 17.2747 12.3008 17.045 11.862C16.7864 11.369 16.535 10.8716 16.2835 10.3741C16.0939 9.99932 15.903 9.62505 15.7244 9.24562C15.4704 8.7 15.2227 8.15506 14.977 7.60522C14.896 7.42289 14.7967 7.24761 14.7758 7.04859C14.6165 6.98514 14.3775 7.04497 14.28 7.17081C14.4025 7.24897 14.573 7.22693 14.6992 7.36115C14.6629 7.37947 14.624 7.39222 14.5838 7.39898C14.5168 7.39755 14.4501 7.38868 14.385 7.3726C14.2321 7.33444 14.0834 7.27476 13.9282 7.24541C13.6648 7.19319 13.3988 7.15362 13.1337 7.11027C12.8602 7.06779 12.5832 7.0506 12.3066 7.05891C12.0029 7.06438 11.6973 7.05671 11.3941 7.06937C10.3981 7.11918 9.47146 7.41605 8.58587 7.852C8.29752 7.99867 8.02226 8.16908 7.76305 8.36154C7.60616 8.46876 7.48002 8.61433 7.3968 8.78406C7.16218 9.2844 7.07254 9.8181 7.03934 10.3626C7.02218 10.6513 7.00495 10.9413 6.98484 11.2277C6.96473 11.5141 6.94175 11.797 6.91861 12.0811C6.90591 12.1975 6.89315 12.3145 6.88498 12.4314C6.86731 12.4793 6.85949 12.5269 6.90064 12.5638ZM21.9243 14.0759C21.8128 14.1142 21.7037 14.1598 21.5901 14.1874C21.446 14.2278 21.2984 14.2549 21.1492 14.2685C20.8599 14.2852 20.5743 14.2325 20.2883 14.1959C20.0023 14.1593 19.7322 14.1206 19.4543 14.081C19.3167 14.0645 19.1774 14.0695 19.0416 14.0958C18.7201 14.1498 18.4214 14.2776 18.1105 14.367C17.9252 14.4204 17.7421 14.4851 17.5541 14.5285C17.3008 14.5874 17.0422 14.6237 16.7883 14.6825C16.4705 14.7457 16.1466 14.7752 15.8222 14.7706C15.339 14.7771 14.8591 14.7347 14.3776 14.7077C14.1095 14.6925 13.8411 14.6922 13.5723 14.684C13.2719 14.6717 12.9713 14.6659 12.6729 14.6344C12.4103 14.6056 12.1504 14.5517 11.89 14.5025C11.5947 14.4471 11.3042 14.3692 11.0211 14.2692C10.5364 14.0975 10.0521 13.9272 9.56339 13.7687C8.93953 13.566 8.31332 13.3709 7.68482 13.1832C7.20054 13.0375 6.71426 12.898 6.22401 12.771C6.04022 12.7237 5.85092 12.7009 5.66116 12.7034C5.21262 12.7135 4.77169 12.8177 4.36754 13.0091C4.12803 13.1205 3.89567 13.2462 3.67178 13.3857C3.4973 13.4929 3.33349 13.6162 3.18249 13.7539C2.83803 14.075 2.60034 14.492 2.50076 14.95C2.42039 15.2728 2.46972 15.6143 2.6384 15.9029C2.78048 16.1387 2.9621 16.349 3.17546 16.5248C3.18955 16.5359 3.20443 16.546 3.21997 16.5549C3.18131 16.4821 3.13478 16.4137 3.0812 16.3507C2.91907 16.1573 2.79112 15.9383 2.70278 15.7028C2.5869 15.3607 2.59061 15.0266 2.77488 14.7058C2.90272 14.4942 3.07748 14.3143 3.286 14.1794C3.66297 13.9225 4.08859 13.7777 4.5291 13.6766C5.11764 13.5386 5.71977 13.4639 6.32498 13.4538C6.58127 13.451 6.83789 13.4571 7.09476 13.4608C7.24515 13.463 7.39604 13.4602 7.54491 13.4752C7.8009 13.493 8.05538 13.5272 8.30698 13.5777C8.58266 13.6429 8.84947 13.7479 9.11839 13.8389C9.6728 14.026 10.2275 14.2112 10.7792 14.4051C11.2293 14.5659 11.6926 14.6878 12.164 14.7694C12.7503 14.8589 13.3422 14.908 13.9352 14.9167C14.3104 14.9281 14.6857 14.9448 15.0605 14.9536C15.3288 14.9604 15.5989 14.9752 15.866 14.9566C16.5053 14.9129 17.1399 14.8376 17.7565 14.653C17.9948 14.5814 18.2349 14.5172 18.4725 14.4455C18.593 14.409 18.7094 14.3557 18.8309 14.3231C19.2276 14.2146 19.63 14.2588 20.0312 14.3017C20.1646 14.3163 20.296 14.3469 20.4294 14.3602C20.5628 14.3736 20.6978 14.3722 20.8313 14.3856C20.9926 14.4007 21.155 14.3986 21.3158 14.3793C21.5562 14.3545 21.7443 14.2322 21.9227 14.0849L21.9243 14.0759Z" fill="url(#paint0_linear_2004_659)" fill-opacity="0.75"/>
<path d="M9.61889 8.37185C9.5911 8.35064 9.54463 8.33265 9.53584 8.30451C9.52714 8.27638 9.55274 8.23388 9.5742 8.20516C9.59617 8.18268 9.62236 8.16469 9.65134 8.15218C9.92643 7.99022 10.2235 7.86772 10.5336 7.7883C10.7204 7.74411 10.9111 7.70035 11.0997 7.6641C11.1385 7.65743 11.1781 7.65701 11.217 7.66275C11.2261 7.66512 11.2345 7.66968 11.2415 7.67593C11.2484 7.68227 11.2537 7.69004 11.2569 7.69883C11.2568 7.70973 11.2542 7.72046 11.2493 7.73026C11.2443 7.74006 11.2372 7.74859 11.2285 7.75526C11.1849 7.77444 11.1394 7.7894 11.0928 7.79987C10.8984 7.85226 10.704 7.9043 10.5095 7.95584C10.3787 7.99022 10.2596 8.05849 10.1644 8.15345C10.0769 8.23836 9.96681 8.29691 9.84684 8.32243C9.77604 8.34118 9.70321 8.35453 9.61889 8.37185Z" fill="#F68623"/>
<path d="M15.6361 9.59075C15.5536 9.58906 15.4745 9.55729 15.414 9.50161C15.3311 9.44154 15.2532 9.37497 15.1811 9.30264C14.931 9.04699 14.7132 8.76227 14.5325 8.45482C14.5109 8.42212 14.4943 8.38647 14.4831 8.34912C14.4803 8.33654 14.4803 8.32344 14.4832 8.31085C14.4862 8.29826 14.492 8.2866 14.5002 8.27655C14.511 8.26912 14.5235 8.26438 14.5365 8.26278C14.5496 8.26117 14.5628 8.26278 14.5752 8.26734C14.6068 8.28246 14.6345 8.30477 14.6558 8.33248C14.7327 8.4315 14.8031 8.53694 14.8849 8.63334C15.0632 8.84701 15.2471 9.05746 15.4268 9.27071C15.4893 9.34556 15.5482 9.4238 15.6063 9.5033C15.6193 9.53135 15.6294 9.56067 15.6361 9.59075Z" fill="#F68623"/>
<path d="M5.88594 12.8097C5.92353 12.8105 5.96098 12.8147 5.99786 12.822C6.46368 12.9529 6.92942 13.0848 7.39503 13.2174C7.41674 13.2235 7.43642 13.2351 7.45231 13.2509C6.90306 13.2022 6.39163 13.0173 5.87346 12.8581L5.88594 12.8097Z" fill="#F68623"/>
</g>
<defs>
<linearGradient id="paint0_linear_2004_659" x1="12.255" y1="6.75" x2="12.255" y2="17.299" gradientUnits="userSpaceOnUse">
<stop stop-color="#F68623"/>
<stop offset="1" stop-color="#DF6F0D"/>
</linearGradient>
<clipPath id="clip0_2004_659">
<rect width="24" height="24" fill="white"/>
</clipPath>
</defs>
</svg>
