<svg width="660" height="660" viewBox="0 0 660 660" fill="none" xmlns="http://www.w3.org/2000/svg">
<path d="M35.9313 479.629L30.7748 469.729H117.211L119.338 472.732C150.913 519.097 196.95 553.72 250.249 571.212C303.547 588.703 361.125 588.079 414.032 569.439C466.94 550.799 512.187 515.189 542.752 468.152C573.316 421.115 587.465 365.291 583.005 309.374L428.696 309.11L473.751 436.529L418.576 512.334L319.668 231.638L645.269 232.266L646.688 237.216C650.406 249.584 653.307 262.185 655.357 274.937C658.484 293.157 659.997 311.613 659.933 330.098C659.825 408.013 632.199 483.383 581.909 542.894C531.619 602.405 461.929 642.228 385.124 655.33C366.611 658.328 347.865 659.868 329.111 659.934C268.338 659.978 208.747 643.143 156.98 611.307C105.213 579.472 63.3106 533.885 35.9313 479.629ZM91.4282 426.942H14.1451L12.8237 421.992C9.30356 409.784 6.57836 397.36 4.66997 384.799C-8.345 307.124 6.82748 227.356 47.469 159.895C88.1105 92.4345 151.553 41.7259 226.303 16.9253C301.054 -7.8754 382.184 -5.13415 455.091 24.654C527.998 54.4421 587.873 109.314 623.87 179.363L628.994 189.264H542.043L539.916 186.261C508.282 139.986 462.247 105.45 408.972 88.0166C355.698 70.5832 298.156 71.2281 245.286 89.8506C192.415 108.473 147.156 144.031 116.566 191.004C85.9769 237.976 71.7701 293.734 76.1198 349.62L231.073 349.884L186.018 222.463L241.45 146.659L340.069 427.355L91.4282 426.942Z" fill="url(#paint0_linear_1818_530)"/>
<defs>
<linearGradient id="paint0_linear_1818_530" x1="330.032" y1="0.130615" x2="330.032" y2="659.934" gradientUnits="userSpaceOnUse">
<stop stop-color="#0BCE0D"/>
<stop offset="1" stop-color="#035A0D"/>
</linearGradient>
</defs>
</svg>