<svg width="32" height="32" viewBox="0 0 32 32" fill="none" xmlns="http://www.w3.org/2000/svg">
    <path fill-rule="evenodd" clip-rule="evenodd" d="M25.4827 18.9474C18.6069 18.9474 13.0345 13.3766 13.0345 6.51008C13.0345 2.91498 10.1344 0 6.51732 0C2.93278 0 0 2.91498 0 6.51008C0 10.1053 2.90015 13.0203 6.51732 13.0203H6.54984C13.393 13.0203 18.9328 18.5911 18.9653 25.4575V25.4899C18.9653 29.085 21.8655 32 25.4827 32C29.0999 32 32 29.085 32 25.4899C31.9674 21.8624 29.0672 18.9474 25.4827 18.9474Z" fill="#31C1BF"/>
    <path fill-rule="evenodd" clip-rule="evenodd" d="M6.54992 18.9474C2.96537 18.9474 0.0325928 21.8624 0.0325928 25.4575C0.0325928 29.0527 2.93274 31.9677 6.54992 31.9677C10.167 31.9677 13.0672 29.0527 13.0672 25.4575C13.0346 21.8624 10.1345 18.9474 6.54992 18.9474Z" fill="#31C1BF"/>
    <path fill-rule="evenodd" clip-rule="evenodd" d="M25.4827 0C29.0821 0 32 2.91462 32 6.51008C32 10.1055 29.0821 13.0203 25.4827 13.0203C21.8832 13.0203 18.9653 10.1055 18.9653 6.51008C18.9653 2.91462 21.8832 0 25.4827 0Z" fill="#31C1BF"/>
</svg>
